<svg height="98" viewBox="0 0 512 512" width="98"
	xmlns="http://www.w3.org/2000/svg"
	xmlns:xlink="http://www.w3.org/1999/xlink">
	<linearGradient id="a" x1="100%" x2="50%" y1="5.663%" y2="50%">
		<stop offset="0" stop-color="#007b55"/>
		<stop offset="1" stop-color="#00ab55"/>
	</linearGradient>
	<linearGradient id="b" x1="50%" x2="50%" y1="0%" y2="100%">
		<stop offset="0" stop-color="#5be584"/>
		<stop offset="1" stop-color="#00ab55"/>
	</linearGradient>
	<g fill="none" fill-rule="evenodd" transform="translate(14 128)">
		<rect width="8.662" height="8.662" transform="translate(38.079 24) rotate(45)" />
        <rect width="8.662" height="8.662" transform="translate(38.079 39.75) rotate(45)" />
        <path d="M1.575,8.909h0L0,7.334l2.88-2.88L0,1.575,1.575,0,6.03,4.454,1.576,8.909Z" transform="translate(46.05 33.545)" />
        <path d="M1.575,8.909h0L0,7.334l2.88-2.88L0,1.575,1.575,0,6.03,4.454,1.576,8.909Z" transform="translate(30.03 42.455) rotate(180)" />
        <path d="M2.378-20.881H12.746v2.923H5.461v3.974h6.554v2.923H5.461V-4.53H2.378Zm13.5,3.426a1.869,1.869,0,0,1-1.37-.571,1.869,1.869,0,0,1-.571-1.37,1.831,1.831,0,0,1,.571-1.359,1.888,1.888,0,0,1,1.37-.56,1.85,1.85,0,0,1,1.359.56,1.85,1.85,0,0,1,.56,1.359,1.888,1.888,0,0,1-.56,1.37A1.831,1.831,0,0,1,15.875-17.456Zm-1.507,1.279h2.992V-4.53H14.367Zm5.481,0h2.809v1.462h.183a3.9,3.9,0,0,1,1.473-1.336,4.338,4.338,0,0,1,2.067-.491,3.907,3.907,0,0,1,2.147.582,3.3,3.3,0,0,1,1.3,1.473,4.378,4.378,0,0,1,1.564-1.484,4.617,4.617,0,0,1,2.341-.571,3.751,3.751,0,0,1,3.026,1.222,4.926,4.926,0,0,1,1.039,3.3V-4.53H34.829v-6.942a2.506,2.506,0,0,0-.514-1.69,1.787,1.787,0,0,0-1.427-.594,2.213,2.213,0,0,0-1.861.925,3.94,3.94,0,0,0-.7,2.432V-4.53H27.339v-6.942a2.434,2.434,0,0,0-.537-1.69,1.942,1.942,0,0,0-1.519-.594,2.09,2.09,0,0,0-1.77.925A4.037,4.037,0,0,0,22.84-10.4V-4.53H19.848Zm20.074,0h2.809v1.416h.183a3.831,3.831,0,0,1,1.393-1.267,4.212,4.212,0,0,1,2.1-.514,5.392,5.392,0,0,1,2.866.788,5.446,5.446,0,0,1,2.021,2.2,6.868,6.868,0,0,1,.731,3.2,6.85,6.85,0,0,1-.731,3.209,5.463,5.463,0,0,1-2.021,2.192,5.392,5.392,0,0,1-2.866.788,4.354,4.354,0,0,1-2.112-.5,3.536,3.536,0,0,1-1.382-1.256h-.183l.183,1.644V.4H39.922Zm5.96,9.249a3.033,3.033,0,0,0,1.576-.434,3.181,3.181,0,0,0,1.165-1.21,3.589,3.589,0,0,0,.434-1.781,3.589,3.589,0,0,0-.434-1.781,3.1,3.1,0,0,0-1.165-1.2,3.1,3.1,0,0,0-1.576-.422,3.054,3.054,0,0,0-1.553.422,3.1,3.1,0,0,0-1.165,1.2,3.589,3.589,0,0,0-.434,1.781,3.589,3.589,0,0,0,.434,1.781,3.181,3.181,0,0,0,1.165,1.21A2.993,2.993,0,0,0,45.882-6.928Zm7.582-13.953h2.992V-4.53H53.464ZM64.106-4.164a6.173,6.173,0,0,1-3.129-.8,5.723,5.723,0,0,1-2.181-2.2,6.352,6.352,0,0,1-.788-3.163,6.373,6.373,0,0,1,.776-3.094A5.98,5.98,0,0,1,60.932-15.7a5.713,5.713,0,0,1,3.06-.845,5.953,5.953,0,0,1,3.106.776,5.062,5.062,0,0,1,1.975,2.124,6.6,6.6,0,0,1,.674,2.992,7.1,7.1,0,0,1-.069,1H60.932A3.3,3.3,0,0,0,62.04-7.533a3.23,3.23,0,0,0,2.112.719,3.377,3.377,0,0,0,1.77-.445,3.289,3.289,0,0,0,1.176-1.2L69.519-7.27A5.838,5.838,0,0,1,64.106-4.164Zm2.763-7.6a2.312,2.312,0,0,0-.4-1.085,2.789,2.789,0,0,0-.982-.891,2.95,2.95,0,0,0-1.473-.354,2.8,2.8,0,0,0-1.838.628,3.522,3.522,0,0,0-1.108,1.7Z" transform="translate(55.861 50.579)" />
	</g>
</svg>